<svg xmlns="http://www.w3.org/2000/svg" id="svg2" viewBox="0 0 500 226.9">
  <style>
    .st0{fill:url(#path2830_1_);} .st1{fill:#D8D8D8;} .st2{fill:#B1B0B3;}
  </style>
  <g id="layer1" transform="translate(275.176 -309.458)">
    <radialGradient id="path2830_1_" cx="-25.1724" cy="422.8982" r="194.1241" gradientUnits="userSpaceOnUse">
      <stop offset="0" stop-color="#D8D8D8"/>
      <stop offset="1" stop-color="#B1B0B3"/>
    </radialGradient>
    <path id="path2830" d="M-157.7 536c-2.3-.9-3-3.8 0-3.2 2.1.4 4 2.6 6.2 3.3-2.1 0-4.3.6-6.2-.1zm-4.4-3.7c-.9-.5-1.6-.3-2.5-.9-.8-.5-1.8-1.8-2.4-2.5-.3-.4-4.3-7.9-4.7-7.3.9-1.3 1.9-1.1 1.4-3.1-.2-1-1-2.9-1.5-3.8-.9-1.8-2-2.3-2.5-4.3-.4-1.5-.7-3-.8-4.5-.5-8.6-1-17.1-1.2-25.8-.1-3.9-1.5-6.3-4.7-8.6-1.5-1.1-3.5-1.7-4.8-3-1.4-1.4-2.1-3.5-3.1-5.1-2-3-3.1-6.3-5.2-9.2-.9-1.3-2.2-2-1.9-3.8.1-.9 1.5-1.7 1.5-2.6 0-.6-.2-.7-.3-.9-.1-.6-1-.9-.8-2.2.2-1.5 1.7-3.2 2.6-4.4 2.9-3.9 3.2-6.1 1.9-10.6-.3-1.2.8-2-1.5-2.2-2.1-.1-1.2 1.5-2.5 2-1.6.6-6.8-3.2-7.6-4.4-.7-1-1.2-2.5-1.9-3.6 0 0-.7-1.9-1-2-.5-.3-.8.6-1.4.4-1.8-.6-3.4-1-5-2.2-1.1-.9-1.9-2.6-3.5-2.8-2.6-.4-2.8 1.2-5.3.2-2.6-1.1-5.4-2.4-7.7-4-1.3-.9-2.6-1.7-2.8-3.3-.3-2.2.6-2.8-.7-5.1-1.9-3.3-4.2-5.8-5.6-9.4-.4-1.2-.5-4.5-2.2-4.4-1.5.1-1.4 1.2-1.3 2.4.2 2 1.8 4.2 2.3 6.2.3 1 1.9 4.9 1.6 5.5-.3.5-2.5-2.9-2.6-3.1-.2-.5.2-1.1-.1-1.6-.3-.7-1.3-.9-1.7-1.6-.7-1.3-.2-2-.4-3.4-.3-1.6-1.1-2.9-1.3-4.6-.3-3.6-3.2-4.2-3.8-7.8-.4-2.2-1.2-5.1-.3-7.2 1.3-3.1 4-5.7 5.8-8.5.6-.9 1.3-3.7 2.4-4 1.1-.3 1.1 1 1.4.9 1.2-.1 2.1-2.1 2-3-.2-1.4-1.7-2.2-2.4-3.3-1.2-1.9-.5-.9-.4-2.9.1-2.3.1-1.8 1.4-3.3-.2.3-.8-4.3-.9-4.4-.8-1.5-2.7-2.2-4.1-3-3.4-1.9-7.4-2.4-11-1.3-1.7.6-3.2.1-4.8.4-2.1.4-4.2 2.1-6.3 2.8-1.1.4-10.5 5-11.2 3.9-.1-.3 7.9-3.2 8.4-4.1.7-1.2-2.8-.5-4.2-1.4.8-.4 2-.9 2.5-1.7.6-1.2-.2-1.8.8-2.8.9-1 10.2-1.6 9.4-3.9 0 .1-6 .6-5.6-.5.9-2.4 7.4-1.3 9.4-2.5-1.5-1.6-2-1.8.1-2.7 2.3-1 5.6-1.4 8.2-2 5.9-1.3 10.8-.9 16.7 0 2.7.4 5.3 1.3 8 1.6 3.4.4 6.5-.8 9.9-1.2 2.4-.3 4.4.3 6.8.3 1 0 7.9.7 8 1.4-.4.3-.7.6-1.1 1-.1 1 4.6 0 5.2.2.9.4 1.2 1.4 1.7 2.3 1.7-2.5 4.1-3 7-2.6 1.6.2 3.4 0 4.9.3 1.6.4 1.6.9 3.2.5.7-.2 3.5-1.5 3.8-1.9.8-1.3-.8-1.4-.6-2.1.2-.7 2.7-1.7 3.2-1.7 1.7-.1.7-.1 1.2 1.2s-.1 1.2 1 2.2c.5-.2 1-.2 1.3.2.3.1.3.3 0 .6.1.3-.8.9-.5 1.3 1.1 1.9 4.9-2.6 6.4-2.6 4.2-.2-.1 3.6-1.7 4.2-1.5.6-3.3.2-4.8.6-.7.2-1.3.6-2 .7-.4 0-1.9-.8-2.3-.4-.4.4 1 1.7 1.3 2-1.3.4-2.6.7-3.9.9-2.3.3-2.1.6-3.7 1.8-2.3 1.6-8.9 3.1-8.2 6.7.4 2 2.9 2.7 4.5 3.3 1.2.5 4.9 1.3 5.8 2.3.5.6-2 9.1 2.5 5.4 1.3-1.1 1.4-3.1 2.6-4.3 1.4-1.5 4-1.7 5.1-3.7.8-1.5.5-2.8 1.3-4.2.7-1.2 2.2-3.5 3.5-4.2 1.7-.9 4.9-.1 6.2 1.1 1.9 1.6.1 2.8 1.4 4.4 1.6 1.8 4.6-1.3 6.2-2.5.8 1.7.2 3.6.6 5.3.2 1 1.2 2 1.3 3 .1 1.1-1.9 1-.3 1.6.9.3 3.4-1.4 4 .6.4 1.4-1.6 2.3-2.6 2.8-2.9 1.6-5.8 2.1-9.1 2.2-3.3.1-5.7.7-8.7 2.3-4.2 2.2-.4 1.3 1.8.5.6-.2 3.4-1.3 3.8-.5.5.8-1.4 1.7-1.5 2.4-.8 3.1 3.4 3.1 5.4 2.6-.9.7-8.7 4-8.7 3.2 0-1 3.7-1.5 3.3-2.4-.5-1.3-6.1 1.5-6.8 1.8-2.1.9-2.9 1.6-4.2 3-1.5 1.6-3.4 1.8-5.3 2.9-1 .6-1.8 1.4-2.7 2.1-.6.5-2.2 2.8-2.6 3-.2-.3-.4-.7-.7-.9.5.1-2.3 6-3.3 6.7-2.4 1.7-5.6 2.7-7.3 5.2-1.2 1.7.4 11.3-2.2 10.1-1.9-.9-.6-5-1.3-6.3-.7-1.3-5.5-2.5-6.9-2.4-1.7.1-1.8 1.7-3 2.1-1.2.5-2.3-.4-3.4-.7-2.7-.7-6.5.9-8.5 3-2.1 2.2-3.8 8-3.1 11.1.5 1.8 1.1 4.3 2.9 5.3 2.2 1.1 5.6-.2 7-1.9.9-1.1 2.6-4.6 4.9-3.1 1.2.8.6 1.3.1 2.6s-3.3 5.2-2.7 6.6c.7 1.7 5.2-.4 6.7.5 3 2-3.5 12.3 4.5 11.6 2.4-.2 2.4-.5 4.7.2 1.8.6 1.7.8 3.1-.9 1.3-1.5 1.7-2 3.3-3 .4-.2 3.4-2.4 3.8-1.8 0 0-2.3 5.8-.4 5.5 1.7-.2.5-2.4.8-2.9.5-1.2 1.9-1.8 3.1-1.6 1 .2 2.1 1.4 3.2 1.8 1.2.4 2.4.6 3.7.8 2.7.3 4.5.9 6.8 2.7 2.5 2 3.7 4.5 7.2 4.9 3.2.4 5.3.8 7 4 .3.6 1.4 2.6 1.4 3.3-.1 1.6-2.1 2.3-2.7 3.5-1.8 3.7 1.9-.8 3.2-1 4-.8.2 3.4-.2 2.9 1.2 1.4 4-1.6 5.7-1.3.8.2 1.9 1 2.4 1.6.3.4-.2 1.6.3 1.9.6.2 3.5-.6 4.3-.5 2.3.2 3.5.6 5.2 2 3.6 2.8 8.4 2.9 5.2 8.8-2 3.7-5.1 5.6-5 9.9.1 3.8-.5 9.3-2.9 12.4-1.4 1.9-2.4 1-4.4 1.6-1.3.4-4.9 2.4-5.7 3.7-.9 1.5.3 3.4-.4 5.2-.8 2.3-1.8 4.4-3.1 6.4-.9 1.5-1.8 4-3.6 4.6-.9.3-5.5-1.4-5.5-.5 0 1.3 3.6 2.4 3.2 4.7-.5 3.5-4.6 1.5-6 3.1-1.3 1.3 1 3.3-1.7 3.6-.9.1-1.8-1.4-2.1.1-.4 1.5 2.2 1.9 2.3 2.7.2 1.3-2.1 3.6-2.2 4.8-.2 1.9 2.1 2.2 2.5 3.9.3 1.2-.8 2.4-1 3.6-.2.9.3 2.4.2 3-.5.7-1.1 1.5-2.6 1.2zm-27.8-163.6c.6-1.3 3.2-4.7 5.1-3.6.6.4-1.5 2-1.4 2.3.3 1.6 2.5.7 3.2.4-.4.2 2-1.5 1.6-1.1.4-.3.8.2 1.3-.4 1.6-2.3-2.4-2.1-3-2.3-3.4-.9-.8-4.9-6-4-2.8.5-3.7 1.1-5.8 2.8 1.7.8 2.5 0 4.1-.2.4 0 4.7.6 4.9.9.1.1-3.3 1.3-3.6 1.5-1.2.8-2.8 2.8-3.2 4.2-1.3 3.5 1.7 1.7 2.8-.5zm6.9 2.3c2.5-1.3.2-1.8-1.3-1.1-3.2 1.5-.9 2.2 1.3 1.1zm6.7-2.8l.6-.6c.2-.9-3-.3-3.4.2-.9 1.6 2.2.8 2.8.4zm28.3 163.1c0 .3.8-1.2.6-1.2-.7 0-1.6 2-2.3.5-.5-.9 3.5-1.5 4.1-.6.4.6-1.8 1.8-2.4 1.3zm315.5-9.5c-1.5-1 6.3-4.3 6.8-4.5 1.4-.6 7-5.1 8.1-4.3 2.1 1.5-4.7 4.7-5.6 5.2-2.6 1.5-5.9 5.2-9.3 3.6zm-26.4-4.9c-.3-.2.1-3.6.4-3.8.3-.2 4.1 0 4.3.3.8 1.1-3.1 4.3-4.7 3.5zm43.6-3.3c.2.2 1.2-2.5 1.2-2.5.7-1.6.6-1.2 2.2-2.7.8-.7 1.9-5.5 1-5.8 1.3.5.5 2.5.9 3.5.2.5.9 1.3 1.3 1.6.8.6 1-.5 1.7-.2 1.1.5-3.6 3.4-3.4 3.3-1.4 1-3.1 3.2-4.9 2.8zm-39.9-4.9c-1.5-1.6-4.1 1.2-6-1.2-.5-.7-.1-5.6-1.2-5.7.1 0-1.2 1.2-1.3 1.1-.5-.5 2.5-2.8 1.8-3.3s-3.6 1.7-3.8 2.3c.3-1-3.3-4.3-4.1-4.7-2.1-.8-5.1.1-7.2.6-4.9 1.1-9.7 2.8-14.6 4.1-1.2.3-4.5 1.1-4.5-1.1 0-.3 1.6-1.9 1.7-2.3.5-1.2.5-2 .4-3.3-.2-2.6-.2-4.9 0-7.6.1-1.8-.3-4.1.7-5.8 2-3.4 7.5-3.5 10.8-4.8 2.5-1 3-3.5 4.9-4.9.4-.3 1 .1 1.4-.2.4-.3 1.2-1.8 1.8-2.4 1.7-1.6 2.7-3.1 5-2.3 2.2.9 1.7 1.7 3 .1 1.1-1.4 1.5-2.3 3.2-3.2 1.6-.8 5.1-2.2 6.6-.4 1.3 1.6-.7 1.7-.7 3.7 0 2.1 3.2 4 4.8 4.8 6.3 3 3.5-10.2 6.7-10.2.2 0 3.6 6.9 3.7 7.7.3 1.4-.4 2.8-.1 4 .2 1.3 1.3 2.1 2 3.1 1.7 2.4 2.9 5.3 4.6 7.8 1.2 1.8 1.1 2.2.7 4.4-1.1 6.6-5.8 10.2-10.2 14.6-2 2.1-2.9 3.3-5.6 4-1.3.5-3.6 2.8-4.5 1.1zm-184.2-7.9c-1.2-1.2-.4-1.9-.7-3.2-.3-1.2-1.1-2.5-1.7-3.6-1.4-2.4-2.8-4.1-3.2-6.9-.6-3.9-1.5-7.3-3.2-10.8-1.1-2.4-2-4.3-1.5-7 .5-2.4 2.7-4.7 3-7 .2-1.2-.7-3.7-.9-5-.5-2.6-1.6-6.1-3.3-8.3-1.8-2.4-3.3-3.1-2.9-6.2.3-2.2 1.5-5.1-.3-7.1-1.6-1.8-3.9-.2-5.4-1.3-.8-.6-.7-1.9-1.9-2.6-1.5-.8-2.4-.5-4 0-2.4.7-4.7 2-7.2 2.1-4.9.2-8.9 1.7-13-1.9-1.9-1.6-2.8-3.3-4-5.5-.6-1.1-1.4-2.2-2.3-3.1-.3-.3-1.8-1.1-2-1.5.1-.2.3-.4.4-.6-.1-.2-1.7-.4-1.2-1.1.3-.2.7-.3 1-.3l-.6-.6c-.1-.3-.7-2.3-.7-2.9.1-1.3 1.7-2.8 1.9-4.5.2-2.1-.9-3.5-1-5.4-.1-2.2 1.9-4.3 2.9-6.2 1.6-2.7 3.1-4.7 5.6-6.6 3.2-2.4 3-5.9 6-8.5.7-.6 3-3.6 3.6-3.7 1.2-.2 2.8 1.3 4.2 1.3 1.9-.1 3.5-1.5 5.2-2.1 2-.8 4-.9 6.1-.9 1.8 0 3.3 0 5.1-.3 2.2-.4 2.4-.9 3.2.9.5 1.1-.3 2.2 0 3.1.6 2.1 2.5 2.3 4.3 2.9 2.8.9 4.1 2.8 7 3.6 4.6 1.3 1.8-3.3 5.3-3.7 1.6-.2 3.7 1.3 5.1 1.8 1.8.6 3.8 1.1 5.6 1.2 1.7.1 3.4-.2 5.1-.1 1.9.1 2.9.8 4.1-1.2.8-1.3 1.8-5.9 1.5-7.1-.7-2.6-3.7-.5-6-.9-1.8-.3-2.6 0-4.2-.1-2.5-.1-2.5-1.9-3.4-3.6-.9-1.7-1.6-1.3-.5-2.5-.2.2 2.7-.8 2.6-.8 1.2-.5 1.9-.8 3.2-1.2 2-.6 3.2-1.4 5.5-.9 2.3.5 4.4 2.3 6.9 1.8 5.4-1.1.1-4.7-2-6-1.7-1-1.6-.7-1.7-1.9-.1-.6 1.3-3 .9-3.4-.5-.6-4.3 1.3-4.5 1.6-1.2 1.7.3.4 1 1.6.2.3-2.3 1.3-2.7 1.2-1.3-.4-.8-1-1.2-1.5-.6-.8-1.1-2.1-2.8-1.6-3 .9-5.9 7.5-2.7 9.3-1.9.4-3.8-.1-5.6.3-.5.1-3.1 1.3-3.3 1.6-.6 1 2.9 4.2.5 5.2-.8.4-2.2-1-2.1-1.8.1-.5 1.8-.6 1.4-1.1-.8-1-2.7-.6-3.6-1.8-.9-1.2-.5-2.6-1.3-3.8-1-1.6-3.2-2.2-4.6-3.1-.9-.6-3-2.7-4-2.9-5.8-.6 7.6 9.3 7.7 8.8 0 .2-2.1-.1-2-.2-.7.4-.3.4-.6.9-.3.4.1 1.4-.3 2.1-.2.3-.6.6-.9.8 1.1-3.6-2.1-4.5-4.5-5.8-1.6-.9-2.2-2.6-3.5-3.7-2.1-2-2.1-.9-4.7.1-1.4.5-4.2-.2-5.2.8-.6.6.1 1.3-.3 1.9-.3.4-1.6.9-1.9 1.2-3 1.9-2.8 5.9-6.1 7.3-.9.4-2 .1-2.8.5-.3.1-1.5 1-1.6 1-.8.1-2.3-1.1-3.3-1.7-1.9-1.1-2.1-.8-1.9-3.5.1-1.3.1-5 .7-6.2 1.5-3.3 7.2.7 9.8-.9 1.2-.7 1.5-3.1 1.2-4.4-.2-1-.5-1.5-1.2-2.2-.6-.5-2.5-.6-2.6-1.5 0-.6 5.4-1.4 6.3-1.8 2.3-1 4.7-3.6 6.7-5.2 1.9-1.5 5.1-1.4 5.3-3.7.1-1-.8-1.7-.2-2.9.3-.6 1.3-1.2 1.9-1.5-.1.5-.7 2.4-.3 2.8.8.8 2-1 2.7-.6 2.8 1.6-3.3 2-2.7 1.4-1.6 1.6 6 2.4 6.3 2.4 1.3 0 2.4-1 3.6-1.1 1.6-.1 2.8.9 4.2-.8.8-1 0-2.7.6-3.4.9-1 1.7.3 2.5 0 1.3-.4.9-.4.9-1.5 0-1.9-1.8-.9.4-1.9.5-.2 8.5-.2 4.4-1.8-2.2-.9-7.7 2.1-8.7-1.7-.5-2 3.7-4.4 2.6-6.2-1.2-1.9-6.1 3.1-7.1 4.1-2.8 2.9 1.6 3.2.9 5.5-.2.6-2 2.3-2.5 3-.7 1-1.9 3.4-3.5 2.9-2-.6-1.8-5.4-3.9-5.7-.5-.1-1.9 1.2-2.5 1.4-2.1.5-3.3-.7-3.7-2.7-.7-3.3 2-3.6 4.4-4.9 2.9-1.5 4.6-3.9 6.8-6.2 4.3-4.6 12.6-6 18.5-3.6 2.5 1 4.9 1.2 7.5 1.9 1.6.5 7.1 2.4 2.2 3.1-2.1.3-4.3-1.3-6.2-.9-2.3.4-.9.6.2 1.7 1.2 1.3 2 3 4 3.1.5 0 1.1.1 1.5-.2 1.1-.9-.8-.7-1.1-1.6l2.7.4c1.6-.6.3-.8 1.1-1.4.8-.6 3.5-.6 3.9-1.5.5-1.1-1.5-2.2.3-2.1 1.3 0 1.3 1.6 2.8 1.6 1.9 0 3.7-2.2 5.8-2.3 1.2 0 2.2.4 3.5.4.8 0 5.4-.2 4.9-1.2-.2-.4-3.2-1.1-2.9-1.3.9-.9 6.8 1.2 7.7 1.5 1.5.4 7 2.6 4.5-.4-1.1-1.3-4.5-2.2-1.9-4.2 1.4-1.1 2.8-.3 3.8.6 1 .9 3.5 3.5 3.7 5 .1.8-1 2-.9 2.4.4 1.5 3-.1 3.3-1.3.7-2.7-2.8-2.6-3.3-4.6-.5-1.9 1.2-.9 2.6-1.3 1.9-.6 3.2-2.2 5.1-2.7.6-.1 2.6.2 3-.3.2-.2.4-1 .3-1 0 0-.4-.5 0-.8.4-.3 1.3-.3 1.8-.4 1.8-.4 10.4.1 10.4-2.7 0-1.3-4.1.4-4.2.4-.5-.2.1-1.1-.6-1.3-.7-.3-1.8-.3-2.6-.3-1.2-.1-5.8.3-6.8-.7-2.5-2.4 5.1-.6 6.4-.3 3.3 1 6.9 1.3 10.1 2.5 2.5.9 4.5 1 7.2 1.1.8.1 4.4.2 4.4 1.6 0 1.1-3.6 1.3-3.6 2.6 0-.3 9.9-.1 10.9-.1 2 0 3.8.8 5.8.6 2.3-.2 4.2-.8 6.6 0 1.9.6 3.7 2.5 5.6 2.9 1.6.4 2.8-.5 4.5-.5 1.8 0 3 .7 4.6-.3.8-.5-.2-.9.4-1.3.7-.5 1.7-.3 2.5-.3 3.7.1 6.9 1.4 10.4 2.2 3.6.8 7.5 0 11.2.9 3 .8 5.6 1.1 8.8 1.2 1.7.1 3.3.5 4.9.6 3.5.4.2 0 1.1-1.2.8-1 7.9.8 9.1 1 2.6.5 5.1 1.4 7.7 1.9 2.7.5 5.3 1.5 8 1.8 2.4.3 3.5 1 5.4 2.7-2.1.7-4-.4-6-1-2.1-.6-4.8-1.8-3.6.8.2.4-2.6-.1-2.4.4.7 1.9 5.3 1.8 6.7 3.1-.3-.3-4.3 1.5-4.9 2-.6.5-.8 1.4-1.7 1.6-.6.1-1-.5-1.6-.5-1 0-1.7.3-2.6.6-3.6 1.3-3.1 2.1-.2 4.4 1 .8 1.5 1.1 2.2 2.3.3.5.8 1.3.9 1.9.1.6-.6.8-.6 1.1.1 1.3 1.8 4.8-.4 4.7-1.4-.1-4.8-4.2-5.9-5.2-2-2-3-3.2-2.5-5.7.2-1.2 2.6-6.7-.6-6.7-1.8 0-.5 1.5-1.2 2-.9.6-1.9-.4-2.8-.6-.7-.2-2.2-.8-3-.3-1.2.9 0 2.7-.6 3.5-1 1.4-5.2-.1-6.9 0-2.5.2-5.8-.6-7.5 1.7-.6.9-2.4 4.7-1.9 5.6 1.2 2.3 5.6.9 7.6 1.8 4.7 2.3 6.8 8.2 5.9 12.9-.2 1.3-.6 3-1.5 4-1.4 1.5-1.8.1-3.2.5-2 .6-1.5 3.8-2.3 5.2-.9 1.6-1.6.2-.6 1.9.8 1.4 3.3 2.2 4.3 3.5 2.2 2.8.4 3.2-2 4.4-.5-1.1-.9-2.2-1.5-3.2-1-1.7-2.3-1.7-3.4-2.9-1-1.1-1.3-3.2-3.5-3-.6 0-1.7 1.4-2.3 1.1-.7-.3-.3-1.5-.7-1.8-1.5-1.4-1.4-1-3.1.5-1.4 1.2-2.3 1.4-1.4 2.9 1.3 2.4 5.5 1.2 7.7 1.8-1.1.8-3.7 2.1-3.5 3.7.1.9 2.1 2.8 2.7 3.6.5.6 2.5 2.1 2.7 2.7.3.7-.5 1.6-.5 1.8.4.9 1.4.4 1.9 1.4.6 1.4-1.1 4.9-1.6 6.3-.6 1.6-1.4 3.2-2.9 4.2-3.3 2.4-7.4 1.4-10.1 5-.8-3.6-5.8-2-6.2 1-.3 2 1.7 3.4 2.9 4.7 1.6 1.7 3 3.5 3.6 5.9.5 1.6.5 3-.5 4.4-.6.8-2.5 2.3-3.4 2.9-2 1.3-1.1.8-1.8-.3-.3-.4.2-1.1-.4-1.7-.2.1-.4.1-.6.2-.6.3-1.1.2-1.4-.5-1.5-.8-4.2-5.7-6.2-4.3-.3.2-.6 4.7-.6 5.2.1 1.4.8 2.7 1.6 3.9 1.6 2.5 4.2 3.7 5.3 6.5.2.5 1.6 3.8 1.3 4.4-.6 1.2-3.2-1.4-3.8-2-2.1-2.5-2.2-5.9-4.4-8.4-2.5-2.7-.3-5.3-1.3-8.7-.4-1.5-1.2-3.5-1.9-4.8-1-2.1-.6-1.9-2.6-1.3-1.8.5-1.4 1.4-2.5-.9-.5-1-.5-2.3-1.2-3.4-.8-1.3-1.7-1.7-2.6-2.6-1-1-1.4-3.2-2.9-3.5-.7-.2-4 .9-4.5 1.2-1.6.8-1.6 2-2.7 3.2-1.9 2.2-4.5 4.3-6.6 6.4-3 2.9-.7 7.9-3.2 11.6-3 4.5-4.4-2.2-5.5-4.6-1.6-3.6-3.7-7.3-4.8-11.1-.4-1.4.2-4-.5-5.2-1.3-2.2-1.1.5-2.1 1.1-1.3.7-2.9-1-3.7-1.9 3.3-.5-.5-2-1.5-2.7-1.4-1-2.3-2.9-4.2-3.1-3.4-.4-7.3 1.2-10.8.1-2-.7-2.6-2.5-4.7-2.6-2.5-.2-4.3.3-6.5-1.8-1.1-1.1-2-4.4-4.1-3.9-3 .6.5 5.4 1.2 6.6.6 1.1.6 1.6 1.7 2.1.2.1 1-1 1.1-1 .4.1.3.7.5.8.6.4.5 1.3 1.6 1.7 1.6.6 2.4-.2 3.5-1.3 3-2.7 1.1-.4 3.6 1.6 1.9 1.5 4.3 1.9 3.4 4.3-.7 1.8-3.1 4.6-4.5 5.9-1.7 1.6-3.8 1.8-5.6 3.3-2.5 2-10.8 8.1-13.4 4.5-1-1.3-.7-3.4-1.3-4.8-.5-1.3-1.4-2.5-2.2-3.6-1.9-2.5-2.9-4.7-4.4-7.4-1.4-2.7-3.8-4.7-5.2-7.4-.8-1.4-2.3-5.3-2.4-1.3-.3-.4-2.3-3.3-2.8-3-.7.5 5.6 11.1 6.2 12.2.9 1.6 1 3 1.6 4.6.7 1.9 2.4 4.1 3.4 5.8 1.3 2.2 3.7 3.4 5.3 5.5 1.1 1.5 1.3 3.8 3.2 4.5 2.6 1 7.8-.9 10.1-2.3.8 3.7-1.4 6.7-3.1 9.9-2.3 4.3-5.4 6.2-8.6 9.7-3.5 3.8-7.9 8.2-6.8 13.8.9 4.2 4.5 10 1 14-2.8 3.3-9.6 4.5-7.8 10 .8 2.6.5 3.5-1.6 5.1-1.1.9-1.9.7-2.5 2.1-.4 1.1.4 2.3-.1 3.3-.6 1.4-3.3 3.8-4.4 5-1.6 1.8-3.5 3.8-5.7 4.9-2.1 1.1-3.7.3-6 .5-1.2.7-3.5 2.2-4.6.4zm49.7-120.5c2.5-1.3-.4-7.1-1-6.9.8-.2 1.6.6 2.1-.5.6-1.2-2-2-2.3-2.2-1-.6-5.3-1.8-4.1-4.2.9-1.8 5.7-.1 2.3-3.1-2.3-2.1-5.3-.1-7.1 1.8-1.6 1.8-.9 2.2.4 3.9 1.9 2.5 3.3 3.9 3.3 7.1 0 2.2-.3 1.9 1.7 2.9 1.6.8 3.2 2.4 4.7 1.2zM-.1 485.8c-1.9-1.1-1.8-4.2-1.2-6 .4-1.1 1.3-1.9 1.6-3 .3-1.4-.4-3-.1-4.4.6-2.2 2.4-2.3 4.1-3.5 1.8-1.3 3.1-2.9 3.9-5 2.3 4.7-.6 9.3-2.1 13.9-.5 2.3-1.9 10.8-6.2 8zm186.1-6.5c-.2-.2-2.3-4.2-1.7-3.8.6.3 4.2 5.9 4.2 5.9-.5.3-2.2-1.8-2.5-2.1zm-168.5-.6c.3-.5.5-.5.8 0-.3.5-.5.5-.8 0zm198.9-.7c-.1-.6.2-.8.7-.7.6.8-.7.8-.7.7zm-196.3-.6c.2-.4.4-.5.8-.2-.2.4-.4.5-.8.2zm186.5-3.8c-.6-1.6 1.6-1.1 1.9-.4.1.5-1.5 1.4-1.9.4zm2.4-1.7c-.1-.1-.2-.3-.3-.4 0-.5 1.9-.3 2-.1.3.6-1.6.5-1.7.5zm-17.6-1.4c-.3-.5-.4-1-.4-1.6.1-.1 1.8 2.3 1.4 2.6-.4.3-1-1-1-1zm1.4-.2c-.1-.3 0-.5.2-.5 1.2 1.1-.7.8-.2.5zm30.8-3.7c-.7-1.1 1.2-.6 1.2-.5.1.8-1 .6-1.2.5zM.3 464.8c-.6-1 1.4.4.4.4-.1-.2-.3-.3-.4-.4zm165.9-3.6c-2.6-.8-3.3-2-5.2-3.8-2.2-2.1-2.8-1.6-4.8 0-1.5 1.2-1.9 1.5-3.9.4-.6-.3-2-.9-2.5-1.2-.4-.3-1.5.4-1.7-.5 0-.1 1.4-1.2 1.4-1.6.1-.6-.9-1.7-1.2-2.1-1.5-1.6-4.1-2.3-6.1-3.1-.7-.3-1.7 0-2.1-.9-.3-.6.8-1.5.8-1.6-.4-.8-3.1-1.4-2.8-2.1.8-2 3.4-.1 4 .7 1.1 1.6.5 3 2.4 2.7 1.2-.2 2.4-2.5 3.8-2.6.9-.1 1.8.5 2.7.9 3.4 1.5 9.8 3.1 11.6 6.8.6 1.3.1 2.2 1 3.6.4.6 4.8 4.3 4.7 4.6-.1.5-2.3-.3-2.1-.2zm16.4 0c-.3-.2-.3-.4-.1-.6.6.1.8.4.7 1-.1.1-.5-.4-.6-.4zm-63.5-1.6c-.2-.1-.3-.3-.5-.4-.2-.3 2.1.2 1.6.7-.4.1-.7 0-1.1-.3zm6.4-.5c.7-1 1.7-1.6 2.9-1.8.6-.1 1.9.6 2.2.5-.6.2-5.5 2.3-5.6 2.3-.1-.2.4-.8.5-1zm54.8.6c-.1-.2-.2-.4-.3-.5.2-.1 1.4.3 1.4.8-.3.4-.7.3-1.1-.3zm1.8-.4c0 .1-.3-1.7-.1-1.5.3.2.6 1.5.5 1.8-.1.4-.4-.3-.4-.3zm29.2.4c.2-.4.4-.5.8-.2-.2.4-.5.5-.8.2zm-96.6-1.6c-.1-.2-.2-.4-.3-.5.5-.7 3.3-.1 3 .3-.3.4-2.2.3-2.7.2zm5.6-.3c-1.2-1.5 3.3-.6 3.2-.1 0 .6-2.8.6-3.2.1zm56.7-.2c-.3-.3-.3-.5-.1-.8.5 0 1.1 1.5.9 1.5-.4-.1-.6-.4-.8-.7zm2.4-.4c-.2-.3-.4-.5-.5-.8-.1-.7 2.1 1.5 1.6 1.5-.4.1-.8-.5-1.1-.7zm-70.9-.1c-2.6-.4-5.1-.9-7.7-1.3-1.7-.2-5.8-1.8-1.7-2.3 1.4-.2 2.3.7 3.6.9 1.3.3 2.7-.5 3.9-.2.6.1 5.6 2.6 5.4 2.9-.3.8-2.8.1-3.5 0zm67.9-1.8c-.4-.2-.5-.5-.3-.8.6 0 1.5 1.5 1.4 1.5-.5.1-.9-.5-1.1-.7zm-2.4-.5c-.3-.3-1-2-.8-2.4-.2.3 2.2 2.3 1.5 2.7-.2-.1-.5-.2-.7-.3zm-8-1.2c-.3-.2-.6-.3-.9-.5 1-.1 5.5-1.5 5.5-2.3-.1 1.8-3.1 4-4.6 2.8zm-70.9-1.4c-3.9-2.2-6.1-8.1-8.5-11.7-1-1.4-4.9-4.9-4.9-6.3 0-1.7 2.8.3 3.7.9 2.8 2.1 6.5 5.4 8.2 8.3 1 1.8 3.3 3.2 3.9 5.1.5 1.6.1 4.7-2.4 3.7zm-76.1-.3l.4-.4c1.1 0-.4 1.5-.4.4zm99.9 0c-.2-.3-.8-3.2-.7-3.6.1-1.2 1.3-4.6 1.8-5.6.8-1.7 1.4-1.7 3-1.8.9-.1 1.9.4 2.8.2.6-.1 1.5-1 2.1-.8.8.3-1.6 2.1-1.9 2.2-1.6.3-3.1-1.5-4.7-.2-1 .8-1.2 1.8.1 2.6.5.3 3.5-.3 3.5-.3-.8 1-1.7.8-1.8 2.3 0 .7 1.7 3 .8 3.7-1.4 1.1-2.4-5.8-3.8-1.7-.2.7 1.3 4.4-1.2 3zm51.9-2c-.2-.3-2.8-2.4-2.8-2.4.7-.7 3.9 2 3.6 2.9-.2.4-.8-.5-.8-.5zm-59.4-1.3c-1.6-.8-3.6 0-5.3-.7-1.9-.8-1.9-1.7-2.5-3.7-.2-.6-.9-2.3-.6-3 .8-1.7.6-.4 1.6-1-.1.1 1.1-.5 1.3-.5.6-.3 1.9-1.6 2.4-2.1 1.6-1.6 2.9-2.6 4.6-4 1.6-1.3 2.2-3 4-.6 1.1 1.6.7.6.1 2.4-.8 2.5-.7 3.4 1 5.6-2.2 1.1-3.8 9.3-6.6 7.6zm22 0c-.2-.2-.4-.3-.6-.5-.1-.7 3-.1 3.2.1.2.4-2.5.5-2.6.4zm60.2-4.8c.2-.4.4-.5.8-.2-.3.4-.5.5-.8.2zm-61.5-1c-.4-.4 0-1.7.1-2.2.1-.3 1.6-2.6 1.6-1.8-.3.4-.6.9-.9 1.4.1.7.2 1.3.4 2-.3 1-.2 1-1.2.6zm-189.8-1.3c.2-.4.4-.5.8-.2-.2.4-.5.5-.8.2zm262-.9c-.6-1 1.4.4.4.4-.1-.2-.2-.3-.4-.4zM-55.4 437c.2-.4.4-.5.8-.2-.2.4-.5.5-.8.2zm181.7-5.7c-.1-.3-2.7-2.9-2.9-1.5.2-1.8 1.8-.6 2.7-1.2.1-.1 2.7-2.3 2.1-2.5 1.1.4 1.5 5.3 1.7 5.3-.8-.1-.8-.9-1.7-.2-.2.2.7 1.2.4 1.3-1 .6-2 .3-2.3-1.2zm-68.9.7c-.7-1.1-1-5.2.4-4.8 1.8.4 3 5.7-.4 4.8zm84.4-2c.1-.6.4-.8.8-.5-.2.7-.4.8-.8.5zm59.3 0c0-1.1.9.4.4.4-.1-.2-.3-.3-.4-.4zm-85.8-2.2c0-.6 3-3.8 3.3-3.6 1.2 1-3.3 4.6-3.3 3.6zm8.2-1c-.1-.2-.2-1.5.4-1.6 1 0 .6 2-.1 2-.1-.1-.2-.2-.3-.4zm-289.3-1.5c2.1-2.5.2 1.7 0 0zm291.9-.1s-.7-1.3-.2-1.3c.4 0 .9 1.6.6 1.8-.3 0-.4-.2-.4-.5zm-3.9-1c-1.1-1.3.9-1.1 1-1.2.1-.1-.1 2.3-1 1.2zm4.5-1.3c-.3-.3-.5-.7-.6-1.1.9-.9 2.5 2.2 2 2.2-.6-.2-1.1-.5-1.4-1.1zm-6.2-1.4c-.3-.3-.5-.6-.6-1 0-.2 1.9 1 1.4 1.4-.3 0-.6-.1-.8-.4zm-296.6-.1c-.3-.3-.4-.6-.1-.8.7.1.7 1.4.1.8zm-2.1-.5c0-1.1.9.4.4.4-.1-.1-.3-.2-.4-.4zm17.8-.7c0-1.1.9.4.4.4l-.4-.4zm284.7-.1c-.9-.5-1.8.1-2.7-.3-1-.5-2.8-2.2-3.2-3.3-.4-1-.2-5.3 1.1-5.3 3.2 0 1 4.5 1.2 5.6.3 1.4 1.8 1.5 2.7 2-.1-.1 2.9 1 1.5 1.5-.6-.1-.8-.2-.6-.2zm-287-2.4c.2-.4.4-.5.8-.2-.2.4-.5.5-.8.2zm59.3-1.3l.4-.4c.5.3.5.5 0 .8-.1-.2-.3-.3-.4-.4zm-60.4-1.5c.1-.6.4-.8.8-.5-.2.7-.4.8-.8.5zm-3.3-1.5c-.2-.4.9.1.9.2-.3.3-.6.2-.9-.2zm60.1 0c-.6-1 1.4.4.4.4-.1-.2-.3-.3-.4-.4zm-58.5-.8c-.6-1 1.4.4.4.4-.2-.1-.3-.3-.4-.4zm1.7 0c0-1.1.9.4.4.4-.2-.1-.3-.3-.4-.4zm-26-1c-.2-.2-.3-.4-.5-.5 0-1 2.7.2 2.9.6.1.1-2.1 0-2.4-.1zm9.5-.2c-1.2-.7-3 .5-4.1-.5 0 0 2.2 0 2.4-.1.7-.4.7-1.1.8-1.2 0 0 .1-.5.5-.7.9-.5 3 .2 3.9.5 4.3 1.5-1.7 2.2-3.5 2zm7.3.2c-1.2-1.2 2.1-.7 1.8-.6-.2.1-1 1.5-1.8.6zm273.3-.6c-1.3-1.3 1.2-2.7 2.4-2.2 0 .1-1.1 3.5-2.4 2.2zm-270.2 0c0-.2 1.1-.7 1.1-.2 0 .4-1.1.3-1.1.2zm-16.3-2.8c-.6-.6-2.2 0-3-.4 0 0 .2-.6.1-.7-.7-.6-1.4-1.2-2.2-1.7-1.3-.8-2.6-1.4-4.1-1.3-.5 0-2.9 1.2-3.1.8-1.1-1.3 6.4-1.6 7.4-1.3 1 .3 8.2 4 7.9 4.2-.4.5-2.6.9-3 .4zm2.7-3.1c.5-.5.9-.5 1.1 0 0 .4-2 .6-1.1 0zm300.9-.7c-1.6-1-.9-5.1.8-4.4 1.3.6-.2 4-.8 4.4zm-298.4-.5c.1-.2 1.7-.6 1.7-.1 0 .8-1.5.2-1.7.1zm-7.5-3.7c-.4-.5-.5-2.2.4-1.4-.2-.1.2 2 .4 1.8-.3.1-.6 0-.8-.4zm2.2-2.9c-.1-.3-.2-.5-.1-.8.2-.2.8 1 .5 1.3-.2-.1-.3-.2-.4-.5zm-2.4-.4c0-.4 1.1-.9 1.2-.5 0 .2-.8 1-1.1 1 .1-.1 0-.3-.1-.5zm316.9-8.2c0-.8-3-3.8-.7-3.3 1 .3 2.8 3.7 1.1 3.8-.2-.2-.3-.4-.4-.5zm-293.2-2.3c.2-.4.4-.5.8-.2-.2.4-.5.5-.8.2zm295.3-.5c-.5-1.2 2.1-1.9 1.4-.3-.3.9-.8 1.2-1.4.3zm3.4-1.4c-1.6-2.4-5.5 1-6.6-.9.1.2 7.7-3.8 8.2-4.4 1.2-1.4 1.3-1.9.7-3.6-.4-1.1-1.7-2.7-.1-2.9 2.4-.2 4 6.8 3.7 8.2-.6 2.2-2.5 1.3-3.9 2.2-.9.6-1.1 1.2-1.4 2.4-.1-.3-.4-.6-.6-1zm-153-1.3c-.5-.5 1.6-1.7 2.1-1.6.7.2-1.4 1.7-2.1 1.6zm-12.9-.6c-.4-.1-.8-.3-1.1-.5.5 0 5 0 4.5.7-.5.9-2.7.1-3.4-.2zm-15.2-3.8c-.5-.2-.9-.4-1.3-.8-.1-.1 3-.9 3.5.1.7 1.9-1.9.9-2.2.7zm-7.6-4.1c-.6-1.8 1.6-3 1.5-.5-.1 1.3-1 2.1-1.5.5zm-8.9.4c.2-.4.6-.6 1-.6.3.1-.2 1.5-1 .6zm197.4-4.4c-.1-.2-.4-5.4-.7-5.2.2-.1 6.5 3.5 6.5 3.5-.6.8-1.6 1.3-2.3 1.4-2.3.4-1.5-.8-2.4 1.3-.2.3-1-.9-1.1-1zm-187.9.5c-.7-.7.4-1.8.8-1.3.2.5.2 1-.1 1.5-.3-.1-.5-.2-.7-.2zm185.5-8c-1.6-1.8-2.5-4.3-4-6.3-.4-.5-3.8-4.6-3.5-4.7.7-.2 7.4 7 7.5 7-.7.9-1.3-1.3-.8 1 .3 1.2 2.8 2.3 2.8 3.5 0 .8-1.9-.4-2-.5zm-276.4-.6c0-.3.1-.5.4-.6.5 0-.1 1.1-.2 1.1-.1-.2-.2-.4-.2-.5zm-2-1.3c-.4 0-1-.1-1.4-.1 1.1-1.1 4.3-5.2 5.7-5.2-.2 0-.4 1.7-.2 2.2.5.8 3.2.8 2.9 2.4-.4 1.6-6 .8-7 .7zm-92.1-2.7c-1.9-1.8-.5-2.8 1.2-1.4 2.4 1.8 1.1 3.6-1.2 1.4zm166.4-1.9c4.9-2.4-.2-1.5.3-2.4.5-1 2.2-1.7 2.5-2.4 1.1-2.2-1.5-2.2-2.2-3.2-.6-.9-.3-3.4.9-3.8.9-.3 1.1 1.1 2.5 1-.6.6-1.1 1.2-1.7 1.8 1.5.4 2.2 1.3 3.1 2.5.5.7.7 1.9 1.3 2.5.6.6 1.1 0 1.7.4 1.2.8-2.5 2.9-3 3-1 .3-5.5.7-5.4.6zm-6.4-2.1c-.3-.8.4-1.8.6-2.6.5-1.7-1.2.2.4-1.6.6-.7 3.3-1.9 4.1-1.2.5.5-.2 3.3-.6 4-.4.7-4.1 2.5-4.5 1.4zm7-3.7c.2-.4.4-.5.8-.2-.2.4-.5.5-.8.2zm-167.7-1.9c-.4-.5 0-1.4.7-1.3.6 0-.1 1.6-.3 1.7-.2-.1-.4-.2-.4-.4zm-.6-2.8c-.4-.6.8-1 .9-1-.1-.1-.4 1.7-.9 1zm-24.4-.2c0-1 3.5-.9 3.6-1-.4.7-2.8.9-3.6 1zm224.5-4.3c-.1-.2-.3-.3-.4-.5.3-1.2 2 .4 1.2.7-.3-.1-.5-.2-.8-.2zm-83-1.9c-4.2-2.3-3.8-8-.5-10.7 1.7-1.4 3.2-2.4 1.9-4.8-.4-.7-1-1.2-1.4-1.8-.4-.8-.6-1.8-1.2-2.6-1.2-1.8-2.1-2.1-4.2-2.3-1.4-.1-4.9.6-6-.5-2.5-2.6 7.1-3.1 8.5-3.7 2.9-1.1 5.2-2 8.3-2.1 5.3-.2 10.4.1 15.7-.6 4.5-.7 9.5-1.3 14-.9 2.1.2 3.9.7 5.9 1.3 1.3.4 5.4-.1 6.1.4.3.2-4 1.4-4.4 1.5-.8.3-2.2.8-2.7 1.7-.4.8 0 1.3-.3 2-.5 1.3-2.2 2.9-3.3 3.7-.7.5-5.3 1.3-5.5 1.7-.2.4 3.5 2.6 4.1 3-1.4.8-5.4-1.6-5.6-.9.1.3.3.7.4 1l-1.2.6c-.3.4 7.5.6.8 2-2.1.4-4.3.4-6.4.8-2.1.4-3.3 1.5-5.2 2.5-3.6 1.8-7.3 1.4-10.1 4.7-2.6 2.8-3.6 6.2-7.7 4zm-26.8-2.5c-1.3-.8-2.1-2.7-3.5-3.1-.6-.2-4.5 1-4.5-.1 0-1.3 4.6-.3 5.2-.5.6-.2.6-.9 1.1-1.2 1.1-.5 1.6-.5 2.7-.6.3 0 2.7.4 2.7-.3.1-.8-.7-.5-1-1-.6-1.2-3.1-4.2-4.4-4.6-1.4-.4-3.8.3-5.4.2-1.1-.1-4.5.4-5.4-.5-1.9-2 4.4-4.2 6.1-4.4-.5.5-3.1 2.9-1.2 2.7 2.3-.3 2.9-2.7 5.7-1.6 1.1.4 1.9 1.5 3.1 1.7.6.1 1.1-.7 1.6-.6.9.2 1.5 1.3 2.2 1.8.8.5 2.5.6 3.1 1.4.5.7.1 1.6.5 2.3.5.9 2.6 1.5 2.8 2.4.4 2.2-2 1.6-3.2 1.4-.8-.1-1.4-.9-2.2-.4-1.3.8.3 1.6.2 2.7-.2 3.6-3.3-.7-4.2 1-.4.8 2.2 1.4 1.8 2.1-.7.8-3.1-.5-3.8-.8zm77.6.4c0-.4 1.1-.4 1.1 0 0 .5-1.1.5-1.1 0zm-91.8-2c-.6-.3-4 .3-4.1 0-.4-.9 1.1-1.9 1.8-2.2 3-.9 4.4 3.4 2.3 2.2zm75-.2c-.9-.6-2.5-.1-2.1-1.3.3-1 2.8-1.4 3.5-1.6 2.4-.4 4.7-.8 6.8.7-1.9 1.7-6 3.7-8.2 2.2zm-102.6-7c-1.6-.3-3.2-1.2-4.7-1.8.7 0 5.2-.1 5.2-.8 0-.5-3.9-.8-3.8-.8.1-.2 2-.3 1.5-.9-.5-.3-.9-.5-1.4-.6-.1-.1 2.7-1.2 3.1-1.3 1.4-.3 2.7-.3 4.1 0 1 .2 2 .3 3 .4.5.1.9-.7 1.5-.5 1 .3-.5 1.2 1 1.3.7.1 1.4-1.7 2.3-1.6 1.6.2 0 1.9-.7 3 .8.4 1.6.8 2.4 1.3-2.4 1.1-3.7 1.4-6.3 1.3-2.6-.1-4.6 1.5-7.2 1zm15.2-.3c-.8-.9 2.5-1.6 3.2-1-.1.1-2.2 1.9-3.2 1zm104.2-1.7c.5-.5.9-.5 1.1 0 0 .5-2 .6-1.1 0zm69.3-1.1c-2.5-1-1.2-1.8 0-3.4 2.4-3.2 6-3.5 9.8-3.6 5.5-.2-1.6 1.3-2.9 1.7-2.3.7-7.2 4-3.1 6-1.3 0-2.6-.2-3.8-.7zm-197.8-1.1c-1.2-1.2 4.9-3.6 5.6-3.7 2.4-.6 4.5 0 6.8.7-2.6.5-11.1 4.3-12.4 3zm27.3-.5c0-.6-1.6-1.3-2.1-1.6 2.8.6 4-1.5 6.7-1.5-.5.1-2.5 5.2-4.6 3.1zm5.8-1.1c-.6-1 4.5-2.8 5.2-1.4.5.8-4.5 1.5-5.2 1.4zm12.1-2.7c-.9-.1-3.9.2-4.6-.5-.7-.7 1.8-1.9 2.2-1.9 1.1-.1 2.3.9 3.5 1.1 2.4.4 4.9-.4 7.3.3-3 1.6-5.1 1.2-8.4 1zm108.7-1.6c-.6-.2-1.1-.6-1.5-1-.2-.4 3.1-.3 2.9-1.1-.1-.7-7.5.8-5.6-1.8.4-.5 5.3.1 6.2.1 1 .1 1.9-1.1 2.2 1.1 0-.6 1-2.4 1.5-2.4s5.9 1.1 5.9 1.2c.3 1.6-6 .4-6 .6 0 1.5 4 1.2 3.9 2.6 0 .2-3.1.1-3.3 0-.8-.4.1-2.3-2-1.6-2 .6-1.4 4.4-4.2 2.3zm-100.2-.8c-.5-.3-6.5-.9-6.4-1 1.2-1.2 7.2 1.1 4.4-1.6.4.4 2.5.2 2.9-.2.4-.4-1.1-.9-.4-1.4 1.6-1.3 7.7 1.6 8.4-.9 0 .1-7.2-1.2-7.6-.8.5-.5 2.7-.4 3.4-.4 2.5-.3 5.1-.5 7.6-.7 3.9-.3 7.9-.5 11.8-1-4 1.9-7.8 3.2-12.1 4.2-2.3.3-10.5 5.3-12 3.8zm-7.4-3.5c-.5 0-1-.2-1.5-.5-.2-.5 5-2.9 5.8-1.2.7 1.5-3.4 1.9-4.3 1.7z" class="st0"/>
  </g>
  <path d="M-666.6-67.8h82v127h-82z" class="st1"/>
  <path d="M-660.6 133.2h76v117h-76z" class="st2"/>
</svg>