<?xml version="1.0" encoding="utf-8"?>
<!-- Generator: Adobe Illustrator 21.1.0, SVG Export Plug-In . SVG Version: 6.00 Build 0)  -->
<svg version="1.1" id="Layer_1" xmlns="http://www.w3.org/2000/svg" xmlns:xlink="http://www.w3.org/1999/xlink" x="0px" y="0px"
	 viewBox="0 0 11 32" style="enable-background:new 0 0 11 32;" xml:space="preserve">
<style type="text/css">
	.st0{fill:#CCCCCC;}
</style>
<title>angle-right</title>
<path class="st0" d="M10.6,17.1c0,0.2-0.1,0.3-0.2,0.4l-8.3,8.3C2,26,1.9,26.1,1.7,26.1S1.4,26,1.3,25.9L0.4,25
	c-0.1-0.1-0.2-0.3-0.2-0.4c0-0.2,0.1-0.3,0.2-0.4l7-7l-7-7C0.3,10,0.2,9.9,0.2,9.7s0.1-0.3,0.2-0.4l0.9-0.9c0.1-0.1,0.3-0.2,0.4-0.2
	S2,8.3,2.1,8.4l8.3,8.3C10.6,16.8,10.6,17,10.6,17.1L10.6,17.1z"/>
</svg>
